<svg width="16" height="24" viewBox="0 0 16 24" fill="none" xmlns="http://www.w3.org/2000/svg">
<path d="M2.06738 14.8418C1.90462 14.679 1.73372 14.5081 1.55469 14.3291C1.39193 14.1501 1.2373 13.9548 1.09082 13.7432C0.944336 13.5316 0.822266 13.3118 0.724609 13.084C0.643229 12.8561 0.602539 12.612 0.602539 12.3516C0.602539 11.8796 0.749023 11.4564 1.04199 11.082C1.33496 10.6914 1.69303 10.2845 2.11621 9.86133L9.78223 2.24414C10.1566 1.86979 10.5391 1.53613 10.9297 1.24316C11.3366 0.933919 11.7842 0.779297 12.2725 0.779297C12.598 0.779297 12.9316 0.868815 13.2734 1.04785C13.6152 1.22689 13.9814 1.51172 14.3721 1.90234C14.7464 2.27669 15.0068 2.62663 15.1533 2.95215C15.3161 3.26139 15.3975 3.57878 15.3975 3.9043C15.3975 4.39258 15.251 4.84831 14.958 5.27148C14.6813 5.67839 14.3558 6.06901 13.9814 6.44336L7.97559 12.4004L13.9326 18.2598C14.3232 18.6504 14.665 19.0492 14.958 19.4561C15.251 19.8467 15.3975 20.278 15.3975 20.75C15.3975 21.0755 15.3161 21.4092 15.1533 21.751C14.9906 22.0928 14.6976 22.4753 14.2744 22.8984C13.9001 23.2728 13.5501 23.5413 13.2246 23.7041C12.9154 23.8506 12.598 23.9238 12.2725 23.9238C11.8005 23.9238 11.3529 23.7773 10.9297 23.4844C10.5228 23.1914 10.124 22.8496 9.7334 22.459L2.06738 14.8418Z" fill="white"/>
</svg>
