<svg width="1643" height="1080" viewBox="0 0 1643 1080" fill="none" xmlns="http://www.w3.org/2000/svg">
<g clip-path="url(#clip0_148_503)">
<rect width="1643" height="1080" fill="#5653FF"/>
<path d="M256.294 777.941C266.937 815.974 245.237 854.497 208.171 864.184C171.105 873.871 132.273 851.169 121.631 813.136C110.988 775.103 132.688 736.58 169.754 726.893C206.82 717.205 245.652 739.908 256.294 777.941Z" fill="url(#paint0_radial_148_503)" stroke="#C2C2C2" stroke-width="12"/>
<path d="M259.05 776.67L291.017 768.315L291.372 769.586C294.349 780.223 288.098 791.11 277.412 793.903L264.795 797.2L259.05 776.67Z" fill="#D9D9D9"/>
<path d="M253.846 769.217L279.952 762.394C284.794 761.129 289.812 764.01 291.16 768.828C292.509 773.647 289.677 778.58 284.836 779.845L258.729 786.668L253.846 769.217Z" fill="#C2C2C2"/>
<path d="M1569.31 179L1330.44 301.621L1506.71 644.993L1745.57 522.372L1569.31 179Z" fill="white"/>
<path fill-rule="evenodd" clip-rule="evenodd" d="M1325.64 315.5L1343.5 306.331L1325.64 315.5Z" fill="#F1A93C"/>
<path d="M1325.64 315.5L1343.5 306.331" stroke="#A89500" stroke-width="5.46945" stroke-linecap="round" stroke-linejoin="round"/>
<path fill-rule="evenodd" clip-rule="evenodd" d="M1335.36 334.445L1353.22 325.276L1335.36 334.445Z" fill="#F1A93C"/>
<path d="M1335.36 334.445L1353.22 325.276" stroke="#A89500" stroke-width="5.46945" stroke-linecap="round" stroke-linejoin="round"/>
<path fill-rule="evenodd" clip-rule="evenodd" d="M1345.09 353.39L1362.95 344.221L1345.09 353.39Z" fill="#F1A93C"/>
<path d="M1345.09 353.39L1362.95 344.221" stroke="#A89500" stroke-width="5.46945" stroke-linecap="round" stroke-linejoin="round"/>
<path fill-rule="evenodd" clip-rule="evenodd" d="M1354.81 372.335L1372.67 363.166L1354.81 372.335Z" fill="#F1A93C"/>
<path d="M1354.81 372.335L1372.67 363.166" stroke="#A89500" stroke-width="5.46945" stroke-linecap="round" stroke-linejoin="round"/>
<path fill-rule="evenodd" clip-rule="evenodd" d="M1364.54 391.28L1382.4 382.111L1364.54 391.28Z" fill="#F1A93C"/>
<path d="M1364.54 391.28L1382.4 382.111" stroke="#A89500" stroke-width="5.46945" stroke-linecap="round" stroke-linejoin="round"/>
<path fill-rule="evenodd" clip-rule="evenodd" d="M1374.26 410.225L1392.12 401.056L1374.26 410.225Z" fill="#F1A93C"/>
<path d="M1374.26 410.225L1392.12 401.056" stroke="#A89500" stroke-width="5.46945" stroke-linecap="round" stroke-linejoin="round"/>
<path fill-rule="evenodd" clip-rule="evenodd" d="M1383.99 429.17L1401.85 420.001L1383.99 429.17Z" fill="#F1A93C"/>
<path d="M1383.99 429.17L1401.85 420.001" stroke="#A89500" stroke-width="5.46945" stroke-linecap="round" stroke-linejoin="round"/>
<path fill-rule="evenodd" clip-rule="evenodd" d="M1393.71 448.115L1411.58 438.946L1393.71 448.115Z" fill="#F1A93C"/>
<path d="M1393.71 448.115L1411.58 438.946" stroke="#A89500" stroke-width="5.46945" stroke-linecap="round" stroke-linejoin="round"/>
<path fill-rule="evenodd" clip-rule="evenodd" d="M1403.44 467.06L1421.3 457.891L1403.44 467.06Z" fill="#F1A93C"/>
<path d="M1403.44 467.06L1421.3 457.891" stroke="#A89500" stroke-width="5.46945" stroke-linecap="round" stroke-linejoin="round"/>
<path fill-rule="evenodd" clip-rule="evenodd" d="M1413.16 486.005L1431.03 476.836L1413.16 486.005Z" fill="#F1A93C"/>
<path d="M1413.16 486.005L1431.03 476.836" stroke="#A89500" stroke-width="5.46945" stroke-linecap="round" stroke-linejoin="round"/>
<path fill-rule="evenodd" clip-rule="evenodd" d="M1422.89 504.95L1440.75 495.781L1422.89 504.95Z" fill="#F1A93C"/>
<path d="M1422.89 504.95L1440.75 495.781" stroke="#A89500" stroke-width="5.46945" stroke-linecap="round" stroke-linejoin="round"/>
<path fill-rule="evenodd" clip-rule="evenodd" d="M1432.62 523.895L1450.48 514.726L1432.62 523.895Z" fill="#F1A93C"/>
<path d="M1432.62 523.895L1450.48 514.726" stroke="#A89500" stroke-width="5.46945" stroke-linecap="round" stroke-linejoin="round"/>
<path fill-rule="evenodd" clip-rule="evenodd" d="M1442.34 542.84L1460.2 533.671L1442.34 542.84Z" fill="#F1A93C"/>
<path d="M1442.34 542.84L1460.2 533.671" stroke="#A89500" stroke-width="5.46945" stroke-linecap="round" stroke-linejoin="round"/>
<path fill-rule="evenodd" clip-rule="evenodd" d="M1452.07 561.785L1469.93 552.616L1452.07 561.785Z" fill="#F1A93C"/>
<path d="M1452.07 561.785L1469.93 552.616" stroke="#A89500" stroke-width="5.46945" stroke-linecap="round" stroke-linejoin="round"/>
<path fill-rule="evenodd" clip-rule="evenodd" d="M1461.79 580.73L1479.65 571.561L1461.79 580.73Z" fill="#F1A93C"/>
<path d="M1461.79 580.73L1479.65 571.561" stroke="#A89500" stroke-width="5.46945" stroke-linecap="round" stroke-linejoin="round"/>
<path fill-rule="evenodd" clip-rule="evenodd" d="M1471.52 599.675L1489.38 590.506L1471.52 599.675Z" fill="#F1A93C"/>
<path d="M1471.52 599.675L1489.38 590.506" stroke="#A89500" stroke-width="5.46945" stroke-linecap="round" stroke-linejoin="round"/>
<path fill-rule="evenodd" clip-rule="evenodd" d="M1481.24 618.62L1499.1 609.451L1481.24 618.62Z" fill="#F1A93C"/>
<path d="M1481.24 618.62L1499.1 609.451" stroke="#A89500" stroke-width="5.46945" stroke-linecap="round" stroke-linejoin="round"/>
<path fill-rule="evenodd" clip-rule="evenodd" d="M1490.97 637.565L1508.83 628.396L1490.97 637.565Z" fill="#F1A93C"/>
<path d="M1490.97 637.565L1508.83 628.396" stroke="#A89500" stroke-width="5.46945" stroke-linecap="round" stroke-linejoin="round"/>
<path d="M1368.86 316.939L1559.36 219.148" stroke="#F7F7F7" stroke-width="4" stroke-linecap="round" stroke-linejoin="round"/>
<path d="M1378.71 336.133L1569.21 238.342" stroke="#F7F7F7" stroke-width="4" stroke-linecap="round" stroke-linejoin="round"/>
<path d="M1388.57 355.326L1579.06 257.536" stroke="#F7F7F7" stroke-width="4" stroke-linecap="round" stroke-linejoin="round"/>
<path d="M1398.42 374.52L1588.92 276.729" stroke="#F7F7F7" stroke-width="4" stroke-linecap="round" stroke-linejoin="round"/>
<path d="M1408.27 393.714L1598.77 295.923" stroke="#F7F7F7" stroke-width="4" stroke-linecap="round" stroke-linejoin="round"/>
<path d="M1418.13 412.907L1608.62 315.117" stroke="#F7F7F7" stroke-width="4" stroke-linecap="round" stroke-linejoin="round"/>
<path d="M1427.98 432.101L1618.48 334.311" stroke="#F7F7F7" stroke-width="4" stroke-linecap="round" stroke-linejoin="round"/>
<path d="M1437.83 451.295L1628.33 353.504" stroke="#F7F7F7" stroke-width="4" stroke-linecap="round" stroke-linejoin="round"/>
<path d="M1447.68 470.489L1638.18 372.698" stroke="#F7F7F7" stroke-width="4" stroke-linecap="round" stroke-linejoin="round"/>
<path d="M1457.54 489.682L1648.04 391.891" stroke="#F7F7F7" stroke-width="4" stroke-linecap="round" stroke-linejoin="round"/>
<path d="M1467.39 508.876L1657.89 411.085" stroke="#F7F7F7" stroke-width="4" stroke-linecap="round" stroke-linejoin="round"/>
<path d="M1477.24 528.07L1667.74 430.279" stroke="#F7F7F7" stroke-width="4" stroke-linecap="round" stroke-linejoin="round"/>
<path d="M1487.1 547.263L1677.59 449.473" stroke="#F7F7F7" stroke-width="4" stroke-linecap="round" stroke-linejoin="round"/>
<path d="M1496.95 566.457L1687.45 468.666" stroke="#F7F7F7" stroke-width="4" stroke-linecap="round" stroke-linejoin="round"/>
<path d="M1506.8 585.651L1697.3 487.86" stroke="#F7F7F7" stroke-width="4" stroke-linecap="round" stroke-linejoin="round"/>
<path d="M1516.66 604.844L1707.15 507.054" stroke="#F7F7F7" stroke-width="4" stroke-linecap="round" stroke-linejoin="round"/>
<path d="M1548.78 819.637C1546.63 824.315 1542.33 826.931 1539.18 825.48C1536.03 824.029 1535.23 819.06 1537.38 814.383C1539.54 809.705 1543.84 807.089 1546.99 808.54C1550.14 809.991 1550.94 814.959 1548.78 819.637Z" fill="black"/>
<path d="M1333.3 730.597L1341.1 713.658L1546.99 808.54L1539.18 825.48L1333.3 730.597Z" fill="#FF4C4C"/>
<path d="M1311.92 710.476L1322.61 720.537L1333.3 730.597L1337.2 722.127L1341.1 713.658L1326.51 712.067L1311.92 710.476Z" fill="#DDDDDD"/>
<path d="M1311.91 710.462L1320.73 711.417L1318.36 716.548L1311.91 710.462Z" fill="black"/>
<path d="M1515.24 814.445L1523.04 797.505L1546.99 808.54L1539.18 825.48L1515.24 814.445Z" fill="#DDDDDD"/>
<path fill-rule="evenodd" clip-rule="evenodd" d="M3.29146 258.756C54.41 206.478 141.385 202.664 197.559 250.239C253.731 297.814 257.828 378.759 206.709 431.037C155.591 483.316 68.615 487.13 12.4429 439.556C-43.7302 391.98 -47.8269 311.035 3.29146 258.756Z" fill="#945D29"/>
<path fill-rule="evenodd" clip-rule="evenodd" d="M105.001 344.898C68.5487 329.69 45.0821 299.683 37.5053 272.012C27.7769 236.479 40.6686 201.288 47.9507 169C62.1752 191.775 111.391 211.727 131.05 249.31C144.238 274.524 147.705 313.458 105.001 344.898Z" fill="#52B136"/>
<path fill-rule="evenodd" clip-rule="evenodd" d="M105.001 344.898C68.5487 329.69 45.0821 299.683 37.5053 272.012C35.5454 264.855 34.5047 257.713 34.1503 250.606C45.583 252.219 56.9023 254.997 67.3154 260.012C82.4834 267.317 98.0002 280.284 104.869 299.594C108.636 283.172 116.285 268.52 125.945 257.427C127.869 255.217 129.881 253.12 131.966 251.122C144.374 276.36 146.698 314.201 105.001 344.898Z" fill="#49A338"/>
<path fill-rule="evenodd" clip-rule="evenodd" d="M105.001 344.898C82.2132 335.391 64.5001 320.1 52.5722 303.213C71.7402 307.916 90.8532 320.137 105.001 344.898Z" fill="#47A338"/>
<path fill-rule="evenodd" clip-rule="evenodd" d="M102.809 335.18C106.17 325.413 107.049 316.294 106.173 307.608C113.663 297.209 129.54 292.215 125.587 274.439C124.287 292.286 113.304 293.687 105.106 300.705C101.126 281.606 89.2073 264.417 77.6686 246.671C80.8003 234.121 92.2702 224.215 83.096 207.763C86.9924 222.499 78.5288 230.824 74.2059 241.296C64.2574 225.662 55.2394 209.413 52.7082 190.899C53.1443 218.564 68.403 243.13 82.044 267.328C67.5072 273.945 54.8291 259.386 41.1557 256.164C56.4775 261.765 62.2173 279.222 85.9688 274.39C96.7816 294.218 105.427 313.978 102.809 335.18Z" fill="#408F36"/>
<path fill-rule="evenodd" clip-rule="evenodd" d="M102.809 335.18C106.17 325.413 107.049 316.294 106.173 307.608C113.663 297.209 129.54 292.215 125.587 274.439C124.287 292.286 113.304 293.687 105.106 300.705C105.026 300.321 104.941 299.937 104.855 299.554C99.9998 285.937 90.8451 275.478 80.547 267.936C66.6316 272.952 54.3582 259.275 41.1557 256.164C56.4775 261.765 62.2173 279.222 85.9688 274.39C96.7816 294.218 105.427 313.978 102.809 335.18Z" fill="#377831"/>
<path fill-rule="evenodd" clip-rule="evenodd" d="M105.001 344.898C88.6602 378.821 56.4184 400.662 26.6852 407.713C-11.4932 416.767 -49.3075 404.768 -84 397.991C-59.5284 384.753 -38.09 338.95 2.29288 320.653C29.3848 308.381 71.2191 305.153 105.001 344.898Z" fill="#52B136"/>
<path fill-rule="evenodd" clip-rule="evenodd" d="M105.001 344.898C88.6602 378.821 56.4184 400.662 26.6852 407.713C18.996 409.537 11.3214 410.506 3.68474 410.835C5.41809 400.195 8.40331 389.661 13.7919 379.969C21.6413 365.854 35.5745 351.413 56.3213 345.02C38.6771 341.514 22.9337 334.395 11.0147 325.404C8.6396 323.614 6.38754 321.741 4.23906 319.802C31.3585 308.253 72.017 306.092 105.001 344.898Z" fill="#49A338"/>
<path fill-rule="evenodd" clip-rule="evenodd" d="M105.001 344.898C94.7852 366.105 78.3564 382.589 60.2104 393.69C65.2648 375.852 78.3961 358.065 105.001 344.898Z" fill="#47A338"/>
<path fill-rule="evenodd" clip-rule="evenodd" d="M94.5603 346.936C84.0655 343.809 74.2674 342.992 64.9339 343.806C53.7585 336.835 48.3934 322.058 29.2942 325.737C48.4703 326.948 49.9754 337.17 57.5165 344.798C36.9947 348.503 18.525 359.595 -0.543438 370.335C-14.0283 367.421 -24.6724 356.745 -42.3498 365.283C-26.5153 361.656 -17.5706 369.533 -6.31795 373.558C-23.1166 382.815 -40.5768 391.209 -60.4691 393.564C-30.7435 393.158 -4.34766 378.958 21.6535 366.262C28.7625 379.791 13.1203 391.59 9.65761 404.316C15.6742 390.055 34.4327 384.714 29.2408 362.611C50.5459 352.546 71.7766 344.499 94.5603 346.936Z" fill="#408F36"/>
<path fill-rule="evenodd" clip-rule="evenodd" d="M94.5602 346.936C84.0655 343.809 74.2674 342.992 64.9339 343.806C53.7585 336.835 48.3934 322.058 29.2942 325.737C48.4703 326.948 49.9754 337.17 57.5165 344.798C57.103 344.874 56.6911 344.953 56.2792 345.033C41.6485 349.55 30.4109 358.072 22.3065 367.655C27.6959 380.606 13.0005 392.029 9.6576 404.316C15.6742 390.055 34.4327 384.714 29.2407 362.611C50.5459 352.546 71.7766 344.499 94.5602 346.936Z" fill="#377831"/>
<path fill-rule="evenodd" clip-rule="evenodd" d="M105.001 344.898C141.452 360.105 164.919 390.111 172.496 417.783C182.224 453.314 169.331 488.507 162.05 520.795C147.825 498.02 98.6096 478.068 78.9512 440.484C65.7633 415.271 62.2958 376.337 105.001 344.898Z" fill="#52B136"/>
<path fill-rule="evenodd" clip-rule="evenodd" d="M105.001 344.898C141.452 360.105 164.919 390.111 172.496 417.783C174.455 424.94 175.495 432.081 175.851 439.189C164.417 437.576 153.098 434.798 142.685 429.783C127.517 422.477 112.001 409.51 105.131 390.201C101.366 406.622 93.7154 421.275 84.055 432.367C82.1314 434.578 80.1205 436.674 78.036 438.673C65.6266 413.434 63.3041 375.594 105.001 344.898Z" fill="#49A338"/>
<path fill-rule="evenodd" clip-rule="evenodd" d="M105.001 344.898C127.788 354.404 145.499 369.693 157.429 386.582C138.261 381.879 119.148 369.657 105.001 344.898Z" fill="#47A338"/>
<path fill-rule="evenodd" clip-rule="evenodd" d="M107.191 354.614C103.831 364.381 102.953 373.5 103.827 382.185C96.3381 392.586 80.4604 397.581 84.4126 415.355C85.7138 397.509 96.6958 396.106 104.895 389.089C108.875 408.188 120.793 425.378 132.332 443.123C129.201 455.674 117.731 465.58 126.904 482.031C123.008 467.295 131.471 458.97 135.795 448.497C145.743 464.132 154.761 480.382 157.293 498.895C156.856 471.23 141.598 446.664 127.956 422.465C142.494 415.85 155.172 430.408 168.844 433.63C153.523 428.03 147.784 410.573 124.033 415.404C113.22 395.577 104.572 375.816 107.191 354.614Z" fill="#408F36"/>
<path fill-rule="evenodd" clip-rule="evenodd" d="M107.191 354.614C103.831 364.381 102.953 373.5 103.827 382.185C96.3381 392.586 80.4604 397.581 84.4126 415.355C85.7138 397.509 96.6958 396.106 104.895 389.089C104.974 389.474 105.059 389.857 105.146 390.24C109.999 403.857 119.156 414.315 129.452 421.858C143.369 416.843 155.643 430.519 168.844 433.63C153.523 428.03 147.784 410.573 124.033 415.404C113.22 395.577 104.572 375.816 107.191 354.614Z" fill="#377831"/>
<path fill-rule="evenodd" clip-rule="evenodd" d="M105.001 344.898C121.341 310.973 153.582 289.133 183.316 282.082C221.495 273.027 259.307 285.025 294 291.803C269.529 305.041 248.091 350.845 207.708 369.141C180.616 381.414 138.782 384.642 105.001 344.898Z" fill="#52B136"/>
<path fill-rule="evenodd" clip-rule="evenodd" d="M105.001 344.898C121.341 310.973 153.582 289.133 183.316 282.082C191.005 280.258 198.679 279.29 206.316 278.959C204.582 289.6 201.598 300.134 196.21 309.825C188.359 323.942 174.426 338.383 153.679 344.776C171.324 348.281 187.067 355.4 198.987 364.39C201.36 366.18 203.614 368.052 205.762 369.992C178.643 381.541 137.983 383.704 105.001 344.898Z" fill="#49A338"/>
<path fill-rule="evenodd" clip-rule="evenodd" d="M115.441 342.858C125.935 345.987 135.734 346.804 145.066 345.99C156.242 352.96 161.608 367.736 180.707 364.058C161.531 362.846 160.025 352.626 152.484 344.996C173.007 341.292 191.476 330.201 210.543 319.461C224.028 322.375 234.674 333.05 252.35 324.512C236.515 328.138 227.57 320.261 216.319 316.238C233.117 306.979 250.577 298.586 270.469 296.231C240.745 296.636 214.349 310.836 188.348 323.533C181.239 310.003 196.881 298.204 200.342 285.479C194.325 299.738 175.568 305.081 180.759 327.185C159.455 337.247 138.223 345.295 115.441 342.858Z" fill="#408F36"/>
<path fill-rule="evenodd" clip-rule="evenodd" d="M115.441 342.858C125.935 345.987 135.734 346.804 145.066 345.99C156.241 352.96 161.608 367.736 180.707 364.058C161.531 362.846 160.025 352.626 152.484 344.996C152.897 344.922 153.31 344.842 153.722 344.762C168.353 340.244 179.59 331.723 187.694 322.14C182.306 309.189 197 297.765 200.342 285.479C194.325 299.738 175.568 305.081 180.759 327.185C159.455 337.247 138.223 345.295 115.441 342.858Z" fill="#377831"/>
<path fill-rule="evenodd" clip-rule="evenodd" d="M105.001 344.898C118.245 377.254 112.466 411.4 97.8732 434.267C79.1381 463.631 45.7448 478.905 18.1002 495.706C24.8491 471.989 6.55504 428.682 20.2042 391.882C29.3605 367.194 54.6284 339.429 105.001 344.898Z" fill="#71C82D"/>
<path fill-rule="evenodd" clip-rule="evenodd" d="M105.001 344.898C118.245 377.254 112.466 411.399 97.8732 434.266C95.3509 438.223 92.5582 441.921 89.552 445.404C83.6066 430.765 67.8082 412.049 66.7886 391.08C66.299 381.003 69.0439 368.954 78.2755 359.321C67.3793 362.595 56.2987 363.323 46.6835 361.895C45.0683 361.654 43.4806 361.358 41.918 361.011C55.9758 349.373 76.4564 341.799 105.001 344.898Z" fill="#5FBB33"/>
<path fill-rule="evenodd" clip-rule="evenodd" d="M99.5677 352.64C90.4421 357.012 83.4108 362.479 77.8409 368.735C65.5489 370.994 51.5591 364.552 41.583 378.68C55.0686 367.725 63.2936 373.534 73.6597 373.936C62.7643 388.954 58.4504 407.579 53.4923 426.34C42.5484 432.686 27.9848 432.179 22.3842 448.636C30.2466 436.543 41.7116 436.248 51.9693 432.001C47.4579 448.395 41.8986 464.624 30.4643 478.368C49.7537 459.881 57.0893 434.351 65.2284 410.053C79.4845 414.606 77.5318 431.964 84.2564 442.467C78.1282 429.387 86.7019 414.371 67.6415 402.997C74.5506 383.311 82.8387 364.999 99.5677 352.64Z" fill="#4FAC37"/>
<path fill-rule="evenodd" clip-rule="evenodd" d="M81.5431 430.013C80.8189 420.875 80.8342 411.64 69.1523 403.947C72.0186 413.273 76.988 422.025 81.5431 430.013ZM99.5677 352.64C90.4421 357.012 83.4108 362.479 77.8409 368.735C75.6844 369.132 73.4736 369.26 71.2434 369.278C70.5442 370.675 69.9365 372.09 69.4137 373.51C70.7999 373.718 72.2088 373.88 73.6597 373.936C71.0532 377.53 68.8238 381.328 66.8719 385.287C66.719 387.267 66.698 389.207 66.7886 391.08C66.9529 394.461 67.5031 397.785 68.3342 401.042C75.1106 382.103 83.3946 364.589 99.5677 352.64Z" fill="#439837"/>
<path fill-rule="evenodd" clip-rule="evenodd" d="M105.001 344.898C139.768 332.571 176.456 337.949 201.029 351.53C232.579 368.966 248.992 400.044 267.044 425.772C241.559 419.492 195.027 436.517 155.486 423.815C128.959 415.293 99.1235 391.776 105.001 344.898Z" fill="#71C82D"/>
<path fill-rule="evenodd" clip-rule="evenodd" d="M105.001 344.898C139.768 332.571 176.456 337.949 201.029 351.53C205.278 353.879 209.251 356.476 212.993 359.275C197.265 364.808 177.154 379.51 154.623 380.46C143.795 380.916 130.848 378.362 120.497 369.769C124.017 379.909 124.798 390.223 123.265 399.171C123.007 400.674 122.686 402.151 122.314 403.606C109.809 390.523 101.671 371.462 105.001 344.898Z" fill="#5FBB33"/>
<path fill-rule="evenodd" clip-rule="evenodd" d="M113.32 349.953C118.018 358.446 123.891 364.99 130.614 370.173C133.042 381.614 126.118 394.633 141.3 403.919C129.527 391.367 135.77 383.712 136.203 374.065C152.339 384.204 172.351 388.22 192.509 392.834C199.328 403.019 198.783 416.573 216.467 421.786C203.472 414.468 203.155 403.798 198.593 394.252C216.207 398.451 233.646 403.624 248.413 414.266C228.549 396.314 201.118 389.488 175.009 381.913C179.902 368.644 198.552 370.462 209.837 364.203C195.784 369.906 179.651 361.928 167.428 379.666C146.275 373.235 126.599 365.523 113.32 349.953Z" fill="#4FAC37"/>
<path fill-rule="evenodd" clip-rule="evenodd" d="M196.456 366.727C186.637 367.402 176.716 367.389 168.448 378.26C178.471 375.591 187.873 370.968 196.456 366.727ZM113.32 349.954C118.018 358.446 123.891 364.991 130.615 370.173C131.041 372.181 131.178 374.238 131.199 376.314C132.7 376.965 134.218 377.53 135.745 378.017C135.967 376.726 136.142 375.415 136.203 374.065C140.063 376.492 144.145 378.565 148.399 380.382C150.526 380.525 152.612 380.544 154.623 380.46C158.257 380.306 161.828 379.794 165.327 379.021C144.978 372.715 126.158 365.006 113.32 349.954Z" fill="#439837"/>
<path fill-rule="evenodd" clip-rule="evenodd" d="M105.001 344.898C91.7563 312.54 97.5349 278.396 112.126 255.527C130.863 226.164 164.256 210.889 191.9 194.089C185.152 217.806 203.446 261.112 189.797 297.912C180.64 322.601 155.372 350.368 105.001 344.898Z" fill="#71C82D"/>
<path fill-rule="evenodd" clip-rule="evenodd" d="M105.001 344.898C91.7555 312.54 97.5349 278.396 112.126 255.527C114.65 251.571 117.443 247.873 120.448 244.391C126.394 259.029 142.193 277.746 143.211 298.715C143.703 308.792 140.957 320.841 131.725 330.475C142.621 327.199 153.702 326.471 163.317 327.9C164.933 328.138 166.519 328.437 168.083 328.784C154.024 340.423 133.544 347.997 105.001 344.898Z" fill="#5FBB33"/>
<path fill-rule="evenodd" clip-rule="evenodd" d="M110.433 337.155C119.559 332.782 126.589 327.316 132.16 321.059C144.453 318.8 158.442 325.243 168.418 311.114C154.931 322.07 146.707 316.262 136.342 315.858C147.236 300.841 151.55 282.215 156.509 263.455C167.451 257.109 182.016 257.616 187.616 241.159C179.755 253.251 168.29 253.547 158.031 257.794C162.543 241.4 168.102 225.171 179.537 211.428C160.246 229.913 152.912 255.444 144.773 279.742C130.516 275.188 132.47 257.831 125.744 247.328C131.873 260.407 123.299 275.422 142.359 286.798C135.45 306.483 127.161 324.796 110.433 337.155Z" fill="#4FAC37"/>
<path fill-rule="evenodd" clip-rule="evenodd" d="M128.458 259.782C129.182 268.919 129.167 278.154 140.848 285.848C137.981 276.521 133.013 267.77 128.458 259.782ZM110.433 337.155C119.559 332.782 126.59 327.315 132.16 321.059C134.317 320.663 136.527 320.534 138.757 320.516C139.457 319.119 140.065 317.706 140.587 316.284C139.2 316.077 137.792 315.915 136.342 315.858C138.948 312.266 141.177 308.466 143.129 304.508C143.281 302.527 143.303 300.586 143.211 298.715C143.047 295.333 142.498 292.01 141.667 288.753C134.89 307.692 126.606 325.207 110.433 337.155Z" fill="#439837"/>
<path fill-rule="evenodd" clip-rule="evenodd" d="M105.001 344.898C70.2327 357.223 33.545 351.846 8.97301 338.265C-22.5779 320.828 -38.9912 289.75 -57.0428 264.023C-31.5587 270.303 14.9734 253.278 54.5143 265.98C81.043 274.501 110.877 298.018 105.001 344.898Z" fill="#71C82D"/>
<path fill-rule="evenodd" clip-rule="evenodd" d="M105.001 344.898C70.2326 357.223 33.545 351.845 8.973 338.265C4.72297 335.917 0.748887 333.318 -2.99295 330.52C12.7359 324.986 32.8474 310.284 55.3778 309.335C66.2059 308.879 79.1527 311.433 89.5042 320.025C85.9833 309.885 85.2016 299.572 86.7359 290.624C86.994 289.12 87.3145 287.643 87.6875 286.188C100.192 299.272 108.331 318.332 105.001 344.898Z" fill="#5FBB33"/>
<path fill-rule="evenodd" clip-rule="evenodd" d="M96.6812 339.84C91.9829 331.349 86.1087 324.804 79.3866 319.62C76.9597 308.18 83.8818 295.161 68.7008 285.876C80.4733 298.428 74.2318 306.082 73.7981 315.729C57.6622 305.59 37.6494 301.574 17.4917 296.96C10.6724 286.776 11.217 273.221 -6.46653 268.009C6.52673 275.326 6.84475 285.996 11.4079 295.544C-6.20733 291.344 -23.6451 286.169 -38.4124 275.529C-18.5489 293.481 8.88317 300.307 34.9911 307.882C30.0993 321.15 11.4484 319.333 0.163017 325.591C14.2168 319.889 30.351 327.868 42.5727 310.128C63.7249 316.559 83.4027 324.273 96.6812 339.84Z" fill="#4FAC37"/>
<path fill-rule="evenodd" clip-rule="evenodd" d="M13.5451 323.066C23.3634 322.393 33.286 322.406 41.5522 311.534C31.5308 314.203 22.1277 318.827 13.5451 323.066ZM96.6812 339.84C91.9829 331.348 86.1087 324.804 79.3866 319.62C78.9601 317.612 78.8225 315.557 78.8023 313.481C77.302 312.83 75.7831 312.264 74.2561 311.778C74.0336 313.068 73.8588 314.379 73.7981 315.728C69.9381 313.303 65.8556 311.229 61.6023 309.412C59.4749 309.27 57.3895 309.25 55.3778 309.335C51.7436 309.488 48.1725 310 44.6734 310.773C65.0237 317.08 83.8437 324.789 96.6812 339.84Z" fill="#439837"/>
<path fill-rule="evenodd" clip-rule="evenodd" d="M105.001 344.898C90.4777 362.223 68.6595 370.525 50.5241 370.667C27.2371 370.85 7.35213 358.998 -11.534 350.553C4.51986 346.167 23.7704 322.691 49.7237 317.494C67.1349 314.006 91.6365 317.648 105.001 344.898Z" fill="#8AD143"/>
<path fill-rule="evenodd" clip-rule="evenodd" d="M105.001 344.898C94.4373 357.5 80.0161 365.325 65.9592 368.712C72.0259 357.491 83.9182 347.53 105.001 344.898Z" fill="#71C82D"/>
<path fill-rule="evenodd" clip-rule="evenodd" d="M98.6978 344.697C93.1489 341.523 87.6487 339.767 82.1678 339.008C76.8108 333.541 75.9716 324.355 64.4516 323.957C75.2749 327.171 74.5887 333.235 77.76 338.605C65.4194 338.036 53.1362 341.977 40.5634 345.636C33.265 342.193 28.773 334.668 17.3322 337.247C26.9709 337.245 30.911 342.942 36.76 346.728C25.7133 349.837 14.419 352.361 2.64407 351.1C19.7672 354.771 37.0716 350.087 53.9212 346.214C55.9499 354.915 45.1824 359.632 41.2658 366.482C46.8809 359.087 58.4577 358.484 58.8299 345.115C72.5842 342.137 85.9914 340.306 98.6978 344.697Z" fill="#65C430"/>
<path fill-rule="evenodd" clip-rule="evenodd" d="M105.001 344.898C123.616 358.414 132.537 378.719 132.691 395.597C132.887 417.269 120.152 435.776 111.076 453.352C106.364 438.412 81.1409 420.496 75.5549 396.342C71.809 380.138 75.7216 357.335 105.001 344.898Z" fill="#80CD3A"/>
<path fill-rule="evenodd" clip-rule="evenodd" d="M105.001 344.898C118.693 354.839 127.141 368.454 130.712 381.675C118.515 375.995 107.671 364.803 105.001 344.898Z" fill="#76C92E"/>
<path fill-rule="evenodd" clip-rule="evenodd" d="M104.784 350.762C101.375 355.927 99.4876 361.046 98.6735 366.146C92.7978 371.132 82.9269 371.913 82.5004 382.635C85.9534 372.561 92.47 373.201 98.239 370.249C97.628 381.734 101.862 393.165 105.795 404.867C102.095 411.66 94.0092 415.839 96.7807 426.487C96.7791 417.517 102.898 413.85 106.967 408.407C110.307 418.688 113.019 429.198 111.665 440.157C115.61 424.221 110.576 408.118 106.415 392.435C115.763 390.548 120.832 400.568 128.192 404.213C120.247 398.987 119.6 388.213 105.235 387.866C102.034 375.065 100.066 362.589 104.784 350.762Z" fill="#65C430"/>
<path fill-rule="evenodd" clip-rule="evenodd" d="M105.001 344.898C119.524 327.571 141.34 319.27 159.478 319.126C182.763 318.944 202.649 330.796 221.534 339.243C205.482 343.627 186.23 367.103 160.278 372.301C142.867 375.788 118.363 372.146 105.001 344.898Z" fill="#8AD143"/>
<path fill-rule="evenodd" clip-rule="evenodd" d="M105.001 344.898C115.621 332.227 130.142 324.384 144.271 321.028C138.185 332.312 126.23 342.335 105.001 344.898Z" fill="#71C82D"/>
<path fill-rule="evenodd" clip-rule="evenodd" d="M111.302 345.098C116.852 348.272 122.352 350.028 127.832 350.786C133.19 356.255 134.029 365.441 145.55 365.837C134.726 362.625 135.412 356.56 132.241 351.19C144.582 351.759 156.864 347.818 169.438 344.157C176.737 347.601 181.228 355.127 192.669 352.549C183.029 352.549 179.09 346.854 173.241 343.066C184.287 339.958 195.582 337.434 207.357 338.694C190.234 335.023 172.929 339.707 156.08 343.58C154.051 334.881 164.818 330.162 168.735 323.313C163.12 330.708 151.542 331.311 151.171 344.68C137.417 347.659 124.009 349.489 111.302 345.098Z" fill="#65C430"/>
<path fill-rule="evenodd" clip-rule="evenodd" d="M105.001 344.898C86.3831 331.381 77.463 311.077 77.3101 294.198C77.1135 272.525 89.849 254.018 98.9244 236.442C103.636 251.383 128.86 269.299 134.446 293.453C138.192 309.657 134.278 332.46 105.001 344.898Z" fill="#80CD3A"/>
<path fill-rule="evenodd" clip-rule="evenodd" d="M105.215 339.032C108.625 333.867 110.512 328.749 111.328 323.648C117.204 318.662 127.074 317.881 127.5 307.16C124.048 317.232 117.531 316.595 111.761 319.545C112.372 308.06 108.138 296.629 104.205 284.927C107.905 278.134 115.992 273.955 113.221 263.307C113.222 272.277 107.102 275.944 103.033 281.387C99.6931 271.107 96.9806 260.596 98.3353 249.637C94.3903 265.574 99.4237 281.678 103.585 297.359C94.2374 299.247 89.1684 289.226 81.8085 285.581C89.7535 290.808 90.4017 301.582 104.766 301.928C107.967 314.728 109.933 327.206 105.215 339.032Z" fill="#65C430"/>
</g>
<defs>
<radialGradient id="paint0_radial_148_503" cx="0" cy="0" r="1" gradientUnits="userSpaceOnUse" gradientTransform="translate(188.963 795.538) rotate(74.3669) scale(77.2825 75.5822)">
<stop stop-color="#5B3434"/>
<stop offset="1" stop-color="#2E1A1A"/>
</radialGradient>
<clipPath id="clip0_148_503">
<rect width="1643" height="1080" fill="white"/>
</clipPath>
</defs>
</svg>
