<svg width="496" height="50" viewBox="0 0 496 50" fill="none" xmlns="http://www.w3.org/2000/svg">
<path d="M10.7531 38V11.45H0.553125V2.75H31.7531V11.45H21.5531V38H10.7531ZM34.775 38V1.2H45.175V16.6H44.375C45.2417 15.1 46.425 13.95 47.925 13.15C49.425 12.3167 51.125 11.9 53.025 11.9C55.9917 11.9 58.2083 12.8167 59.675 14.65C61.1417 16.45 61.875 19.2167 61.875 22.95V38H51.475V23.35C51.475 22.0833 51.2583 21.1833 50.825 20.65C50.3917 20.0833 49.7583 19.8 48.925 19.8C47.7917 19.8 46.875 20.1667 46.175 20.9C45.5083 21.6333 45.175 22.6 45.175 23.8V38H34.775ZM80.5633 38.6C75.7633 38.6 72.0466 37.4 69.4133 35C66.7799 32.6 65.4633 29.3333 65.4633 25.2C65.4633 22.6333 65.9966 20.35 67.0633 18.35C68.1633 16.35 69.6966 14.7833 71.6633 13.65C73.6633 12.4833 75.9966 11.9 78.6633 11.9C81.3299 11.9 83.5466 12.4833 85.3133 13.65C87.0799 14.8167 88.3966 16.4167 89.2633 18.45C90.1299 20.45 90.5633 22.75 90.5633 25.35V27.35H74.2633V22.65H82.8133L81.9633 23.35C81.9633 21.7167 81.6799 20.5333 81.1133 19.8C80.5466 19.0333 79.7633 18.65 78.7633 18.65C77.5966 18.65 76.7133 19.1167 76.1133 20.05C75.5466 20.95 75.2633 22.4167 75.2633 24.45V25.5C75.2633 27.4333 75.7299 28.8333 76.6633 29.7C77.6299 30.5333 79.0466 30.95 80.9133 30.95C82.1799 30.95 83.3799 30.8333 84.5133 30.6C85.6466 30.3333 86.7299 29.9167 87.7633 29.35L90.3633 36.1C89.0299 36.9 87.5299 37.5167 85.8633 37.95C84.2299 38.3833 82.4633 38.6 80.5633 38.6ZM121.59 38L105.39 2.75H116.99L127.69 27.95H124.54L135.19 2.75H146.34L130.19 38H121.59ZM147.373 38V12.5H157.773V38H147.373ZM147.223 9.6V0.499997H157.923V9.6H147.223ZM175.408 49.2C172.775 49.2 170.475 48.9833 168.508 48.55C166.575 48.1167 164.825 47.4833 163.258 46.65L164.958 39.3C165.792 39.7667 166.758 40.1667 167.858 40.5C168.958 40.8667 170.092 41.1333 171.258 41.3C172.425 41.5 173.492 41.6 174.458 41.6C176.525 41.6 178.042 41.15 179.008 40.25C179.975 39.3833 180.458 38.1333 180.458 36.5V32.95H180.908C180.375 34.2833 179.342 35.35 177.808 36.15C176.275 36.95 174.608 37.35 172.808 37.35C170.575 37.35 168.608 36.8333 166.908 35.8C165.208 34.7667 163.875 33.3 162.908 31.4C161.975 29.5 161.508 27.25 161.508 24.65C161.508 22.05 161.975 19.8 162.908 17.9C163.875 15.9667 165.208 14.4833 166.908 13.45C168.608 12.4167 170.575 11.9 172.808 11.9C174.675 11.9 176.342 12.3 177.808 13.1C179.275 13.9 180.275 14.9333 180.808 16.2H180.458L181.008 12.5H191.008C190.875 13.7 190.775 14.9167 190.708 16.15C190.642 17.35 190.608 18.55 190.608 19.75V35.35C190.608 39.7833 189.308 43.2 186.708 45.6C184.108 48 180.342 49.2 175.408 49.2ZM176.208 29.7C177.475 29.7 178.475 29.2833 179.208 28.45C179.942 27.5833 180.308 26.3167 180.308 24.65C180.308 22.95 179.942 21.6833 179.208 20.85C178.475 19.9833 177.475 19.55 176.208 19.55C174.908 19.55 173.875 19.9833 173.108 20.85C172.375 21.6833 172.008 22.95 172.008 24.65C172.008 26.3167 172.375 27.5833 173.108 28.45C173.875 29.2833 174.908 29.7 176.208 29.7ZM195.42 38V1.2H205.82V16.6H205.02C205.886 15.1 207.07 13.95 208.57 13.15C210.07 12.3167 211.77 11.9 213.67 11.9C216.636 11.9 218.853 12.8167 220.32 14.65C221.786 16.45 222.52 19.2167 222.52 22.95V38H212.12V23.35C212.12 22.0833 211.903 21.1833 211.47 20.65C211.036 20.0833 210.403 19.8 209.57 19.8C208.436 19.8 207.52 20.1667 206.82 20.9C206.153 21.6333 205.82 22.6 205.82 23.8V38H195.42ZM227.158 38V19.75C227.158 18.55 227.124 17.35 227.058 16.15C226.991 14.9167 226.891 13.7 226.758 12.5H236.758L237.308 16.55H236.758C237.624 15.0833 238.808 13.95 240.308 13.15C241.808 12.3167 243.491 11.9 245.358 11.9C248.358 11.9 250.591 12.8167 252.058 14.65C253.524 16.45 254.258 19.25 254.258 23.05V38H243.858V23.45C243.858 22.0833 243.624 21.1333 243.158 20.6C242.724 20.0667 242.124 19.8 241.358 19.8C240.224 19.8 239.308 20.1833 238.608 20.95C237.908 21.6833 237.558 22.6667 237.558 23.9V38H227.158ZM273.439 20.35C273.439 16.7167 274.172 13.5333 275.639 10.8C277.139 8.06666 279.255 5.95 281.989 4.45C284.722 2.91667 287.955 2.15 291.689 2.15C295.455 2.15 298.705 2.91667 301.439 4.45C304.172 5.95 306.289 8.06666 307.789 10.8C309.289 13.5333 310.039 16.7167 310.039 20.35C310.039 23.9833 309.289 27.1667 307.789 29.9C306.289 32.6333 304.172 34.7667 301.439 36.3C298.705 37.8333 295.455 38.6 291.689 38.6C287.955 38.6 284.722 37.8333 281.989 36.3C279.255 34.7667 277.139 32.6333 275.639 29.9C274.172 27.1333 273.439 23.95 273.439 20.35ZM284.739 20.35C284.739 23.2833 285.289 25.5667 286.389 27.2C287.522 28.8333 289.289 29.65 291.689 29.65C294.089 29.65 295.855 28.8333 296.989 27.2C298.155 25.5333 298.739 23.25 298.739 20.35C298.739 17.45 298.155 15.1833 296.989 13.55C295.855 11.9167 294.089 11.1 291.689 11.1C289.289 11.1 287.522 11.9167 286.389 13.55C285.289 15.15 284.739 17.4167 284.739 20.35ZM316.911 38V20.1H312.211V12.5H319.861L316.911 15.2V11.95C316.911 8.28333 317.878 5.55 319.811 3.75C321.778 1.91667 324.761 1 328.761 1C329.661 1 330.611 1.05 331.611 1.15C332.645 1.25 333.561 1.46667 334.361 1.8V9.65C333.861 9.48333 333.311 9.36667 332.711 9.3C332.111 9.23333 331.528 9.2 330.961 9.2C330.428 9.2 329.861 9.28333 329.261 9.45C328.695 9.58333 328.211 9.86667 327.811 10.3C327.411 10.7333 327.211 11.3667 327.211 12.2V14L325.811 12.5H333.111V20.1H327.311V38H316.911ZM369.545 38.6C365.612 38.6 362.195 37.85 359.295 36.35C356.429 34.8167 354.195 32.6833 352.595 29.95C351.029 27.2167 350.245 24.0167 350.245 20.35C350.245 16.6833 351.029 13.5 352.595 10.8C354.195 8.06666 356.429 5.95 359.295 4.45C362.195 2.91667 365.612 2.15 369.545 2.15C371.945 2.15 374.145 2.46667 376.145 3.1C378.179 3.7 379.862 4.56667 381.195 5.7L378.045 14.15C376.545 13.15 375.195 12.4667 373.995 12.1C372.795 11.7 371.445 11.5 369.945 11.5C367.245 11.5 365.162 12.2667 363.695 13.8C362.262 15.3 361.545 17.4833 361.545 20.35C361.545 23.25 362.262 25.4667 363.695 27C365.162 28.5 367.245 29.25 369.945 29.25C371.445 29.25 372.795 29.0667 373.995 28.7C375.195 28.3 376.545 27.6 378.045 26.6L381.195 35.05C379.862 36.1833 378.179 37.0667 376.145 37.7C374.145 38.3 371.945 38.6 369.545 38.6ZM393.947 38.6C391.781 38.6 389.847 38.0667 388.147 37C386.481 35.9333 385.164 34.4 384.197 32.4C383.264 30.4 382.797 28.0167 382.797 25.25C382.797 22.4833 383.264 20.1 384.197 18.1C385.164 16.1 386.481 14.5667 388.147 13.5C389.847 12.4333 391.781 11.9 393.947 11.9C395.814 11.9 397.531 12.3333 399.097 13.2C400.697 14.0667 401.731 15.2 402.197 16.6H401.697L402.297 12.5H412.297C412.164 13.7 412.064 14.9167 411.997 16.15C411.931 17.35 411.897 18.55 411.897 19.75V38H401.597L401.497 34.2H402.097C401.597 35.5 400.564 36.5667 398.997 37.4C397.464 38.2 395.781 38.6 393.947 38.6ZM397.447 30.95C398.681 30.95 399.681 30.5167 400.447 29.65C401.247 28.7833 401.647 27.3167 401.647 25.25C401.647 23.1833 401.247 21.7167 400.447 20.85C399.681 19.9833 398.681 19.55 397.447 19.55C396.214 19.55 395.197 19.9833 394.397 20.85C393.631 21.7167 393.247 23.1833 393.247 25.25C393.247 27.3167 393.631 28.7833 394.397 29.65C395.164 30.5167 396.181 30.95 397.447 30.95ZM423.814 38L412.714 12.5H423.564L429.364 27.8H427.464L433.614 12.5H443.764L432.464 38H423.814ZM444.834 38V12.5H455.234V38H444.834ZM444.684 9.6V0.499997H455.384V9.6H444.684ZM464.319 21.5L460.519 18.45C461.919 17.0833 462.936 15.7833 463.569 14.55C464.236 13.3167 464.569 11.9833 464.569 10.55L466.769 13.1H459.469V2.75H470.019V9.15C470.019 11.4833 469.586 13.6 468.719 15.5C467.886 17.4 466.419 19.4 464.319 21.5ZM483.157 38.6C480.691 38.6 478.457 38.3667 476.457 37.9C474.491 37.4333 472.807 36.8 471.407 36L473.807 29.3C475.107 29.9667 476.591 30.5333 478.257 31C479.957 31.4667 481.607 31.7 483.207 31.7C484.274 31.7 485.024 31.5667 485.457 31.3C485.891 31 486.107 30.6333 486.107 30.2C486.107 29.8333 485.957 29.55 485.657 29.35C485.391 29.15 485.007 29.0167 484.507 28.95L478.907 28C476.741 27.6333 475.057 26.85 473.857 25.65C472.657 24.4167 472.057 22.8167 472.057 20.85C472.057 19.05 472.541 17.4833 473.507 16.15C474.507 14.8167 475.907 13.7833 477.707 13.05C479.541 12.2833 481.691 11.9 484.157 11.9C486.124 11.9 488.007 12.1167 489.807 12.55C491.641 12.95 493.241 13.6 494.607 14.5L492.057 21C491.024 20.3667 489.791 19.85 488.357 19.45C486.957 19.0167 485.674 18.8 484.507 18.8C483.274 18.8 482.407 18.95 481.907 19.25C481.441 19.5167 481.207 19.8667 481.207 20.3C481.207 20.6 481.324 20.8667 481.557 21.1C481.824 21.3 482.224 21.45 482.757 21.55L488.357 22.45C490.557 22.7833 492.257 23.55 493.457 24.75C494.657 25.9167 495.257 27.5167 495.257 29.55C495.257 31.4833 494.741 33.1167 493.707 34.45C492.707 35.7833 491.291 36.8167 489.457 37.55C487.657 38.25 485.557 38.6 483.157 38.6Z" fill="#fff"/>
</svg>
