<svg width="997" height="1064" viewBox="0 0 997 1064" fill="none" xmlns="http://www.w3.org/2000/svg">
<g clip-path="url(#clip0_176_242)">
<ellipse cx="347" cy="761.493" rx="321" ry="299" fill="#6D61F9" fill-opacity="0.83"/>
<ellipse cx="651" cy="925.493" rx="321" ry="299" fill="#6D61F9"/>
<path d="M576.003 730.567L592.264 730.566L600 665.832L576 665.834L576.003 730.567Z" fill="#FFB8B8"/>
<path d="M623.481 745.697L572.583 745.699L572.582 725.445L608.586 725.444C612.536 725.444 616.325 727.06 619.118 729.936C621.912 732.813 623.481 736.715 623.481 740.783L623.481 745.697Z" fill="#2F2E41"/>
<path d="M511.002 730.567L527.264 730.566L535 665.832L511 665.834L511.002 730.567Z" fill="#FFB8B8"/>
<path d="M558.753 745.697L507.855 745.7L507.854 725.446L543.858 725.444C547.808 725.444 551.597 727.06 554.39 729.937C557.183 732.813 558.753 736.715 558.753 740.784L558.753 745.697Z" fill="#2F2E41"/>
<path d="M603.892 544.873C602.566 543.586 601.529 542.015 600.854 540.269C600.179 538.523 599.882 536.645 599.984 534.768C600.087 532.891 600.585 531.059 601.446 529.403C602.306 527.746 603.507 526.305 604.963 525.181L598 496.685L613.705 488.083L622.992 528.468C624.655 531.125 625.319 534.321 624.857 537.451C624.394 540.581 622.839 543.426 620.484 545.448C618.13 547.47 615.141 548.529 612.082 548.423C609.024 548.317 606.11 547.053 603.892 544.873Z" fill="#FFB8B8"/>
<path d="M506 495.763L507.311 591.059L508.621 716.304L537.46 713.58L551.878 540.689L570.23 713.58H600.002L603 539.326L592.514 501.209L506 495.763Z" fill="#2F2E41"/>
<path d="M562.473 507.833C530.945 507.835 501.924 493.116 501.533 492.914L501.207 492.746L498.561 427.249C497.794 424.934 482.687 379.264 480.128 364.747C477.536 350.04 515.108 337.133 519.67 335.623L520.706 323.792L562.81 319.112L568.146 334.251L583.251 340.093C584.963 340.756 586.381 342.044 587.234 343.713C588.088 345.381 588.318 347.315 587.882 349.147L579.486 384.364L596 500.879L595.576 501.076C584.995 506.006 573.575 507.832 562.473 507.833Z" fill="#6C63FF"/>
<path d="M600.433 515.513L585.829 453.388L570 378.42L578.035 341.056H584.904C585.03 341.056 597.513 341.249 600.201 357.912C602.804 374.051 610.654 425.416 610.733 425.932L624 513.675L600.433 515.513Z" fill="#6C63FF"/>
<path d="M537.982 505.22C537.896 503.348 537.415 501.518 536.571 499.859C535.728 498.2 534.543 496.752 533.101 495.618C531.658 494.484 529.993 493.691 528.222 493.295C526.452 492.899 524.618 492.909 522.852 493.325L506.464 469.43L490 476.192L513.601 509.601C514.474 512.625 516.388 515.213 518.981 516.874C521.575 518.535 524.667 519.155 527.672 518.615C530.677 518.075 533.387 516.413 535.287 513.944C537.187 511.476 538.146 508.372 537.982 505.22Z" fill="#FFB8B8"/>
<path d="M505.939 503.444L456 437.3L474.712 377.26C476.083 362.165 485.335 357.95 485.728 357.778L486.329 357.515L502.611 401.846L490.656 434.395L520 484.782L505.939 503.444Z" fill="#6C63FF"/>
<path d="M557.907 307.845C572.642 299.55 578.057 280.523 570.002 265.348C561.948 250.172 543.474 244.595 528.74 252.891C514.005 261.186 508.59 280.213 516.645 295.388C524.699 310.563 543.173 316.141 557.907 307.845Z" fill="#FFB8B8"/>
<path d="M563.585 264.855C560.443 268.658 555.125 269.73 550.22 270.17C540.257 271.064 525.77 269.615 516.034 267.316C515.339 274.203 517.234 281.628 513.267 287.293C511.407 280.435 510.326 273.38 510.044 266.269C509.924 263.22 509.971 260.065 511.183 257.265C512.396 254.466 515.039 252.089 518.083 252.064C515.821 250.31 513.172 249.152 510.37 248.692L520.008 243.74L517.533 241.142L534.983 240.05L529.929 236.767C537.536 235.698 545.231 235.45 552.889 236.026C556.445 236.294 560.163 236.805 563.044 238.912C565.925 241.019 567.59 245.206 565.801 248.299C568.041 248.674 570.149 249.629 571.927 251.071C573.704 252.513 575.092 254.396 575.959 256.54C577.244 259.87 577.126 263.568 576.731 267.116C576.073 272.79 574.783 278.369 572.886 283.744" fill="#2F2E41"/>
</g>
<defs>
<clipPath id="clip0_176_242">
<rect width="997" height="1064" fill="white"/>
</clipPath>
</defs>
</svg>
