<svg width="82" height="82" viewBox="0 0 82 82" fill="none" xmlns="http://www.w3.org/2000/svg">
<path d="M68.2214 19.5003L64.8006 6.7277L53.1763 9.96084L48.3338 0L9.70972 19.5003H0V82H76.7265V65.1542H82.0001V36.0611H76.7263V19.5003H68.2214ZM60.7664 13.9253L62.2596 19.5004H57.8139H51.3953H40.7221L50.124 16.8853L55.7781 15.3127L60.7664 13.9253ZM70.9748 76.1388H5.7515V44.2167V33.0864V32.2044V26.1892V25.3616H8.72714H11.0563H19.6491H54.2448H60.6635H63.8294H66.8102H69.7912H70.9748V29.7809V36.061H69.6759H66.6949H59.2645H46.3087H41.6384V38.4189V44.96V45.7149V48.7527V51.7905V65.154H70.975V76.1386H70.9748V76.1388ZM76.2485 59.293H73.8505H70.9747H47.3899V50.191V47.1532V44.1154V42.0563V41.9223H47.6554H55.275H66.1968H70.975H73.8507H74.2267H76.2485V59.293ZM45.7335 7.85391L47.5224 11.5334L27.3113 17.1548L45.7335 7.85391Z" fill="white"/>
<path d="M51.9451 47.8806V48.9241V53.6196H57.5768V47.8806H55.6964H51.9451Z" fill="white"/>
</svg>